<?xml version="1.0" encoding="UTF-8" standalone="no"?>
<!-- Generator: Adobe Illustrator 16.0.0, SVG Export Plug-In . SVG Version: 6.00 Build 0)  -->

<svg
   version="1.1"
   id="Layer_1"
   x="0px"
   y="0px"
   width="138.491"
   height="138.444"
   viewBox="-4.5 0 138.491 138.44399"
   enable-background="new -4.5 0 616.5 147.167"
   xml:space="preserve"
   sodipodi:docname="cfp_favicon.svg"
   inkscape:version="1.3.2 (091e20e, 2023-11-25)"
   xmlns:inkscape="http://www.inkscape.org/namespaces/inkscape"
   xmlns:sodipodi="http://sodipodi.sourceforge.net/DTD/sodipodi-0.dtd"
   xmlns="http://www.w3.org/2000/svg"
   xmlns:svg="http://www.w3.org/2000/svg"><defs
   id="defs23" /><sodipodi:namedview
   id="namedview23"
   pagecolor="#ffffff"
   bordercolor="#000000"
   borderopacity="0.25"
   inkscape:showpageshadow="2"
   inkscape:pageopacity="0.0"
   inkscape:pagecheckerboard="0"
   inkscape:deskcolor="#d1d1d1"
   inkscape:zoom="1.3446878"
   inkscape:cx="304.53166"
   inkscape:cy="69.904704"
   inkscape:window-width="1568"
   inkscape:window-height="665"
   inkscape:window-x="728"
   inkscape:window-y="493"
   inkscape:window-maximized="0"
   inkscape:current-layer="Layer_1" />
<g
   id="g15"
   transform="translate(-3.5,-3.8890009)">
	<g
   id="g14">
		<g
   id="g13">
			<g
   id="g12">
				<circle
   fill="#3cf0ff"
   cx="21.528999"
   cy="26.417999"
   r="6.5809999"
   id="circle1" />
				<circle
   fill="#3cf0ff"
   cx="114.914"
   cy="119.804"
   r="6.5809999"
   id="circle2" />
				<circle
   fill="#3cf0ff"
   cx="91.568001"
   cy="96.457001"
   r="19.792"
   id="circle3" />
				<circle
   fill="#3cf0ff"
   cx="44.875"
   cy="49.764999"
   r="19.792"
   id="circle4" />
				<circle
   fill="#3cf0ff"
   cx="114.914"
   cy="26.417999"
   r="6.5809999"
   id="circle5" />
				<circle
   fill="#3cf0ff"
   cx="124.281"
   cy="73.111"
   r="13.21"
   id="circle6" />
				<circle
   fill="#3cf0ff"
   cx="68.221001"
   cy="17.099001"
   r="13.21"
   id="circle7" />
				<circle
   fill="#3cf0ff"
   cx="68.221001"
   cy="129.123"
   r="13.21"
   id="circle8" />
				<circle
   fill="#3cf0ff"
   cx="12.21"
   cy="73.111"
   r="13.21"
   id="circle9" />
				<circle
   fill="#3cf0ff"
   cx="21.528999"
   cy="119.804"
   r="6.5809999"
   id="circle10" />
				<circle
   fill="#3cf0ff"
   cx="44.875"
   cy="96.457001"
   r="19.792"
   id="circle11" />
				<circle
   fill="#3cf0ff"
   cx="91.568001"
   cy="49.764999"
   r="19.792"
   id="circle12" />
			</g>
		</g>
	</g>
</g>
<g
   id="g23"
   transform="translate(-3.5,-3.8890009)">
	<path
   fill="#ffffff"
   d="m 212.767,83.536 v 11.48 c -2.93,1.633 -6.773,2.547 -10.856,2.547 -13.307,0 -24.74,-10.424 -24.74,-24.451 0,-14.077 11.433,-24.452 24.74,-24.452 4.131,0 7.926,0.912 10.856,2.546 v 11.481 c -2.834,-2.209 -5.861,-3.459 -10.136,-3.459 -7.494,0 -13.979,5.766 -13.979,13.883 0,8.215 6.485,13.98 13.979,13.98 4.275,-10e-4 7.301,-1.298 10.136,-3.555 z"
   id="path15" />
	<path
   fill="#ffffff"
   d="m 248.651,37.227 c -1.393,-0.72 -2.834,-1.104 -4.468,-1.104 -4.179,0 -7.013,2.738 -7.013,7.686 v 5.908 h 10.52 v 9.607 H 237.17 V 96.457 H 225.304 V 59.324 h -7.686 v -9.607 h 7.686 v -6.629 c 0,-10.424 6.389,-17.055 16.525,-17.055 2.738,0 5.044,0.386 6.869,1.201 v 9.992 h -0.047 z"
   id="path16" />
	<path
   fill="#ffffff"
   d="m 302.405,73.112 c 0,13.883 -9.848,24.451 -22.722,24.451 -6.917,0 -12.682,-3.555 -15.228,-7.688 v 25.748 h -12.058 v -65.86 h 12.058 v 6.581 c 2.546,-4.131 8.311,-7.687 15.228,-7.687 12.874,0.003 22.722,10.667 22.722,24.455 z m -38.334,0 c 0,8.021 5.765,14.17 13.258,14.17 7.398,0 13.258,-6.1 13.258,-14.17 0,-8.023 -5.86,-14.077 -13.258,-14.077 -7.493,0 -13.258,6.054 -13.258,14.077 z"
   id="path17" />
	<path
   fill="#ffffff"
   d="m 341.652,97.563 c -13.307,0 -24.549,-10.424 -24.549,-24.451 0,-14.077 11.242,-24.452 24.451,-24.452 14.412,0 23.441,10.953 23.441,24.836 0,0.912 0,1.92 -0.096,2.93 h -36.604 c 1.297,7.014 6.773,11.48 13.402,11.48 5.477,0 9.223,-2.113 11.24,-6.197 h 11.527 c -3.021,10.186 -11.86,15.854 -22.812,15.854 z m -12.97,-29.015 h 24.738 c -0.625,-5.044 -4.852,-10.04 -11.865,-10.04 -6.1,-0.001 -11.241,3.937 -12.873,10.04 z"
   id="path18" />
	<path
   fill="#ffffff"
   d="M 383.348,96.458 H 371.289 V 49.765 h 12.059 v 5.476 c 2.449,-3.746 7.303,-6.58 13.211,-6.58 10.76,0 17.053,7.398 17.053,17.822 V 96.507 H 401.555 V 69.652 c 0,-5.477 -3.123,-10.135 -9.127,-10.135 -5.766,0 -9.129,4.659 -9.129,10.231 v 26.708 h 0.049 z"
   id="path19" />
	<path
   fill="#ffffff"
   d="m 444.309,97.563 c -13.309,0 -24.547,-10.424 -24.547,-24.451 0,-14.077 11.238,-24.452 24.449,-24.452 14.412,0 23.443,10.953 23.443,24.836 0,0.912 0,1.92 -0.098,2.93 h -36.604 c 1.297,7.014 6.773,11.48 13.402,11.48 5.477,0 9.223,-2.113 11.24,-6.197 h 11.48 c -2.926,10.186 -11.812,15.854 -22.765,15.854 z M 431.387,68.548 h 24.738 c -0.625,-5.044 -4.852,-10.04 -11.865,-10.04 -6.149,-0.001 -11.24,3.937 -12.873,10.04 z"
   id="path20" />
	<path
   fill="#ffffff"
   d="m 501.666,61.053 c -1.01,-0.096 -1.922,-0.191 -2.836,-0.191 -6.916,0 -12.346,3.746 -12.346,12.778 V 96.458 H 474.427 V 49.764 h 12.057 v 7.206 c 2.547,-4.468 7.398,-8.022 13.787,-8.022 0.48,0 0.914,0.097 1.346,0.097 v 12.009 h 0.049 z"
   id="path21" />
	<path
   fill="#ffffff"
   d="m 541.248,88.002 c -2.545,3.939 -8.215,7.494 -15.084,7.494 -12.25,0 -22.338,-10.039 -22.338,-23.346 0,-13.403 10.137,-23.443 22.338,-23.443 6.869,0 12.49,3.651 15.084,7.493 v -6.437 h 12.059 v 43.908 c 0,14.219 -11.336,23.105 -24.74,23.105 -12.152,0 -22.096,-6.389 -23.922,-17.871 h 11.865 c 1.439,5.045 5.859,7.83 12.057,7.83 6.822,0 12.684,-4.082 12.684,-12.488 v -6.246 h -0.003 z M 528.662,59.035 c -7.014,0 -12.873,5.478 -12.873,13.067 0,7.494 5.859,13.066 12.873,13.066 6.918,0 12.875,-5.572 12.875,-13.066 0,-7.59 -5.957,-13.067 -12.875,-13.067 z"
   id="path22" />
	<path
   fill="#ffffff"
   d="m 578.285,89.637 -20.08,-39.874 h 12.971 l 13.402,27.575 13.402,-27.575 h 12.777 l -33.818,65.86 h -12.488 z"
   id="path23" />
</g>
</svg>
